<svg xmlns="http://www.w3.org/2000/svg" width="260" height="167" viewBox="0 0 260 167"><rect width="260" height="167" fill="#ffffff" rx="8"/><text x="36" y="16" font-family="monospace" font-size="10" fill="#6b7280" letter-spacing="2">COMMIT ACTIVITY — 12 WEEKS</text><text x="14" y="39" font-family="monospace" font-size="9" fill="#6b7280" text-anchor="middle">M</text><text x="14" y="56" font-family="monospace" font-size="9" fill="#6b7280" text-anchor="middle">T</text><text x="14" y="73" font-family="monospace" font-size="9" fill="#6b7280" text-anchor="middle">W</text><text x="14" y="90" font-family="monospace" font-size="9" fill="#6b7280" text-anchor="middle">T</text><text x="14" y="107" font-family="monospace" font-size="9" fill="#6b7280" text-anchor="middle">F</text><text x="14" y="124" font-family="monospace" font-size="9" fill="#6b7280" text-anchor="middle">S</text><text x="14" y="141" font-family="monospace" font-size="9" fill="#6b7280" text-anchor="middle">S</text><rect x="36" y="28" width="14" height="14" rx="2" fill="#f3f4f6" opacity="1"><title>2026-02-01: 0 commit(s)</title></rect><rect x="36" y="45" width="14" height="14" rx="2" fill="#f3f4f6" opacity="1"><title>2026-02-02: 0 commit(s)</title></rect><rect x="36" y="62" width="14" height="14" rx="2" fill="#f3f4f6" opacity="1"><title>2026-02-03: 0 commit(s)</title></rect><rect x="36" y="79" width="14" height="14" rx="2" fill="#f3f4f6" opacity="1"><title>2026-02-04: 0 commit(s)</title></rect><rect x="36" y="96" width="14" height="14" rx="2" fill="#f3f4f6" opacity="1"><title>2026-02-05: 0 commit(s)</title></rect><rect x="36" y="113" width="14" height="14" rx="2" fill="#f3f4f6" opacity="1"><title>2026-02-06: 0 commit(s)</title></rect><rect x="36" y="130" width="14" height="14" rx="2" fill="#f3f4f6" opacity="1"><title>2026-02-07: 0 commit(s)</title></rect><rect x="53" y="28" width="14" height="14" rx="2" fill="#f3f4f6" opacity="1"><title>2026-02-08: 0 commit(s)</title></rect><rect x="53" y="45" width="14" height="14" rx="2" fill="#f3f4f6" opacity="1"><title>2026-02-09: 0 commit(s)</title></rect><rect x="53" y="62" width="14" height="14" rx="2" fill="#f3f4f6" opacity="1"><title>2026-02-10: 0 commit(s)</title></rect><rect x="53" y="79" width="14" height="14" rx="2" fill="#f3f4f6" opacity="1"><title>2026-02-11: 0 commit(s)</title></rect><rect x="53" y="96" width="14" height="14" rx="2" fill="#f3f4f6" opacity="1"><title>2026-02-12: 0 commit(s)</title></rect><rect x="53" y="113" width="14" height="14" rx="2" fill="#f3f4f6" opacity="1"><title>2026-02-13: 0 commit(s)</title></rect><rect x="53" y="130" width="14" height="14" rx="2" fill="#f3f4f6" opacity="1"><title>2026-02-14: 0 commit(s)</title></rect><rect x="70" y="28" width="14" height="14" rx="2" fill="#f3f4f6" opacity="1"><title>2026-02-15: 0 commit(s)</title></rect><rect x="70" y="45" width="14" height="14" rx="2" fill="#f3f4f6" opacity="1"><title>2026-02-16: 0 commit(s)</title></rect><rect x="70" y="62" width="14" height="14" rx="2" fill="#f3f4f6" opacity="1"><title>2026-02-17: 0 commit(s)</title></rect><rect x="70" y="79" width="14" height="14" rx="2" fill="#f3f4f6" opacity="1"><title>2026-02-18: 0 commit(s)</title></rect><rect x="70" y="96" width="14" height="14" rx="2" fill="#f3f4f6" opacity="1"><title>2026-02-19: 0 commit(s)</title></rect><rect x="70" y="113" width="14" height="14" rx="2" fill="#f3f4f6" opacity="1"><title>2026-02-20: 0 commit(s)</title></rect><rect x="70" y="130" width="14" height="14" rx="2" fill="#f3f4f6" opacity="1"><title>2026-02-21: 0 commit(s)</title></rect><rect x="87" y="28" width="14" height="14" rx="2" fill="#f3f4f6" opacity="1"><title>2026-02-22: 0 commit(s)</title></rect><rect x="87" y="45" width="14" height="14" rx="2" fill="#f3f4f6" opacity="1"><title>2026-02-23: 0 commit(s)</title></rect><rect x="87" y="62" width="14" height="14" rx="2" fill="#f3f4f6" opacity="1"><title>2026-02-24: 0 commit(s)</title></rect><rect x="87" y="79" width="14" height="14" rx="2" fill="#f3f4f6" opacity="1"><title>2026-02-25: 0 commit(s)</title></rect><rect x="87" y="96" width="14" height="14" rx="2" fill="#f3f4f6" opacity="1"><title>2026-02-26: 0 commit(s)</title></rect><rect x="87" y="113" width="14" height="14" rx="2" fill="#f3f4f6" opacity="1"><title>2026-02-27: 0 commit(s)</title></rect><rect x="87" y="130" width="14" height="14" rx="2" fill="#f3f4f6" opacity="1"><title>2026-02-28: 0 commit(s)</title></rect><rect x="104" y="28" width="14" height="14" rx="2" fill="#f3f4f6" opacity="1"><title>2026-03-01: 0 commit(s)</title></rect><rect x="104" y="45" width="14" height="14" rx="2" fill="#f3f4f6" opacity="1"><title>2026-03-02: 0 commit(s)</title></rect><rect x="104" y="62" width="14" height="14" rx="2" fill="#f3f4f6" opacity="1"><title>2026-03-03: 0 commit(s)</title></rect><rect x="104" y="79" width="14" height="14" rx="2" fill="#f3f4f6" opacity="1"><title>2026-03-04: 0 commit(s)</title></rect><rect x="104" y="96" width="14" height="14" rx="2" fill="#f3f4f6" opacity="1"><title>2026-03-05: 0 commit(s)</title></rect><rect x="104" y="113" width="14" height="14" rx="2" fill="#f3f4f6" opacity="1"><title>2026-03-06: 0 commit(s)</title></rect><rect x="104" y="130" width="14" height="14" rx="2" fill="#f3f4f6" opacity="1"><title>2026-03-07: 0 commit(s)</title></rect><rect x="121" y="28" width="14" height="14" rx="2" fill="#f3f4f6" opacity="1"><title>2026-03-08: 0 commit(s)</title></rect><rect x="121" y="45" width="14" height="14" rx="2" fill="#f3f4f6" opacity="1"><title>2026-03-09: 0 commit(s)</title></rect><rect x="121" y="62" width="14" height="14" rx="2" fill="#f3f4f6" opacity="1"><title>2026-03-10: 0 commit(s)</title></rect><rect x="121" y="79" width="14" height="14" rx="2" fill="#f3f4f6" opacity="1"><title>2026-03-11: 0 commit(s)</title></rect><rect x="121" y="96" width="14" height="14" rx="2" fill="#f3f4f6" opacity="1"><title>2026-03-12: 0 commit(s)</title></rect><rect x="121" y="113" width="14" height="14" rx="2" fill="#f3f4f6" opacity="1"><title>2026-03-13: 0 commit(s)</title></rect><rect x="121" y="130" width="14" height="14" rx="2" fill="#f3f4f6" opacity="1"><title>2026-03-14: 0 commit(s)</title></rect><rect x="138" y="28" width="14" height="14" rx="2" fill="#f3f4f6" opacity="1"><title>2026-03-15: 0 commit(s)</title></rect><rect x="138" y="45" width="14" height="14" rx="2" fill="#f3f4f6" opacity="1"><title>2026-03-16: 0 commit(s)</title></rect><rect x="138" y="62" width="14" height="14" rx="2" fill="#f3f4f6" opacity="1"><title>2026-03-17: 0 commit(s)</title></rect><rect x="138" y="79" width="14" height="14" rx="2" fill="#f3f4f6" opacity="1"><title>2026-03-18: 0 commit(s)</title></rect><rect x="138" y="96" width="14" height="14" rx="2" fill="#f3f4f6" opacity="1"><title>2026-03-19: 0 commit(s)</title></rect><rect x="138" y="113" width="14" height="14" rx="2" fill="#6c63ff" opacity="0.95"><title>2026-03-20: 13 commit(s)</title></rect><rect x="138" y="130" width="14" height="14" rx="2" fill="#c7d2fe" opacity="0.95"><title>2026-03-21: 1 commit(s)</title></rect><rect x="155" y="28" width="14" height="14" rx="2" fill="#818cf8" opacity="0.95"><title>2026-03-22: 6 commit(s)</title></rect><rect x="155" y="45" width="14" height="14" rx="2" fill="#c7d2fe" opacity="0.95"><title>2026-03-23: 1 commit(s)</title></rect><rect x="155" y="62" width="14" height="14" rx="2" fill="#c7d2fe" opacity="0.95"><title>2026-03-24: 1 commit(s)</title></rect><rect x="155" y="79" width="14" height="14" rx="2" fill="#f3f4f6" opacity="1"><title>2026-03-25: 0 commit(s)</title></rect><rect x="155" y="96" width="14" height="14" rx="2" fill="#f3f4f6" opacity="1"><title>2026-03-26: 0 commit(s)</title></rect><rect x="155" y="113" width="14" height="14" rx="2" fill="#818cf8" opacity="0.95"><title>2026-03-27: 8 commit(s)</title></rect><rect x="155" y="130" width="14" height="14" rx="2" fill="#c7d2fe" opacity="0.95"><title>2026-03-28: 1 commit(s)</title></rect><rect x="172" y="28" width="14" height="14" rx="2" fill="#c7d2fe" opacity="0.95"><title>2026-03-29: 2 commit(s)</title></rect><rect x="172" y="45" width="14" height="14" rx="2" fill="#f3f4f6" opacity="1"><title>2026-03-30: 0 commit(s)</title></rect><rect x="172" y="62" width="14" height="14" rx="2" fill="#c7d2fe" opacity="0.95"><title>2026-03-31: 5 commit(s)</title></rect><rect x="172" y="79" width="14" height="14" rx="2" fill="#f3f4f6" opacity="1"><title>2026-04-01: 0 commit(s)</title></rect><rect x="172" y="96" width="14" height="14" rx="2" fill="#f3f4f6" opacity="1"><title>2026-04-02: 0 commit(s)</title></rect><rect x="172" y="113" width="14" height="14" rx="2" fill="#f3f4f6" opacity="1"><title>2026-04-03: 0 commit(s)</title></rect><rect x="172" y="130" width="14" height="14" rx="2" fill="#c7d2fe" opacity="0.95"><title>2026-04-04: 1 commit(s)</title></rect><rect x="189" y="28" width="14" height="14" rx="2" fill="#c7d2fe" opacity="0.95"><title>2026-04-05: 1 commit(s)</title></rect><rect x="189" y="45" width="14" height="14" rx="2" fill="#f3f4f6" opacity="1"><title>2026-04-06: 0 commit(s)</title></rect><rect x="189" y="62" width="14" height="14" rx="2" fill="#f3f4f6" opacity="1"><title>2026-04-07: 0 commit(s)</title></rect><rect x="189" y="79" width="14" height="14" rx="2" fill="#c7d2fe" opacity="0.95"><title>2026-04-08: 3 commit(s)</title></rect><rect x="189" y="96" width="14" height="14" rx="2" fill="#c7d2fe" opacity="0.95"><title>2026-04-09: 2 commit(s)</title></rect><rect x="189" y="113" width="14" height="14" rx="2" fill="#6c63ff" opacity="0.95"><title>2026-04-10: 18 commit(s)</title></rect><rect x="189" y="130" width="14" height="14" rx="2" fill="#c7d2fe" opacity="0.95"><title>2026-04-11: 1 commit(s)</title></rect><rect x="206" y="28" width="14" height="14" rx="2" fill="#c7d2fe" opacity="0.95"><title>2026-04-12: 4 commit(s)</title></rect><rect x="206" y="45" width="14" height="14" rx="2" fill="#f3f4f6" opacity="1"><title>2026-04-13: 0 commit(s)</title></rect><rect x="206" y="62" width="14" height="14" rx="2" fill="#f3f4f6" opacity="1"><title>2026-04-14: 0 commit(s)</title></rect><rect x="206" y="79" width="14" height="14" rx="2" fill="#f3f4f6" opacity="1"><title>2026-04-15: 0 commit(s)</title></rect><rect x="206" y="96" width="14" height="14" rx="2" fill="#f3f4f6" opacity="1"><title>2026-04-16: 0 commit(s)</title></rect><rect x="206" y="113" width="14" height="14" rx="2" fill="#f3f4f6" opacity="1"><title>2026-04-17: 0 commit(s)</title></rect><rect x="206" y="130" width="14" height="14" rx="2" fill="#c7d2fe" opacity="0.95"><title>2026-04-18: 3 commit(s)</title></rect><rect x="223" y="28" width="14" height="14" rx="2" fill="#6c63ff" opacity="0.95"><title>2026-04-19: 15 commit(s)</title></rect><rect x="223" y="45" width="14" height="14" rx="2" fill="#c7d2fe" opacity="0.95"><title>2026-04-20: 4 commit(s)</title></rect><rect x="223" y="62" width="14" height="14" rx="2" fill="#f3f4f6" opacity="1"><title>2026-04-21: 0 commit(s)</title></rect><rect x="223" y="79" width="14" height="14" rx="2" fill="#c7d2fe" opacity="0.95"><title>2026-04-22: 5 commit(s)</title></rect><rect x="223" y="96" width="14" height="14" rx="2" fill="#c7d2fe" opacity="0.95"><title>2026-04-23: 1 commit(s)</title></rect><rect x="223" y="113" width="14" height="14" rx="2" fill="#f3f4f6" opacity="1"><title>2026-04-24: 0 commit(s)</title></rect><rect x="223" y="130" width="14" height="14" rx="2" fill="#f3f4f6" opacity="1"><title>2026-04-25: 0 commit(s)</title></rect></svg>