<svg xmlns="http://www.w3.org/2000/svg" width="520" height="132" viewBox="0 0 520 132"><rect width="520" height="132" fill="#0e0e0f"/><text x="20" y="16" font-family="monospace" font-size="10" fill="#7a7870" letter-spacing="2">CODING HOURS</text><rect x="20" y="108" width="18" height="2" fill="#3a3835" opacity="0.4" rx="2"><title>00:00 — 0 commit(s)</title></rect><text x="29" y="122" font-family="monospace" font-size="9" fill="#7a7870" text-anchor="middle">00h</text><rect x="40" y="108" width="18" height="2" fill="#3a3835" opacity="0.4" rx="2"><title>01:00 — 0 commit(s)</title></rect><rect x="60" y="108" width="18" height="2" fill="#3a3835" opacity="0.4" rx="2"><title>02:00 — 0 commit(s)</title></rect><rect x="80" y="108" width="18" height="2" fill="#3a3835" opacity="0.4" rx="2"><title>03:00 — 0 commit(s)</title></rect><rect x="100" y="108" width="18" height="2" fill="#3a3835" opacity="0.4" rx="2"><title>04:00 — 0 commit(s)</title></rect><rect x="120" y="82" width="18" height="26" fill="#a060f0" opacity="0.85" rx="2"><title>05:00 — 3 commit(s)</title></rect><rect x="140" y="91" width="18" height="17" fill="#60c8f0" opacity="0.85" rx="2"><title>06:00 — 2 commit(s)</title></rect><text x="149" y="122" font-family="monospace" font-size="9" fill="#7a7870" text-anchor="middle">06h</text><rect x="160" y="108" width="18" height="2" fill="#3a3835" opacity="0.4" rx="2"><title>07:00 — 0 commit(s)</title></rect><rect x="180" y="91" width="18" height="17" fill="#60c8f0" opacity="0.85" rx="2"><title>08:00 — 2 commit(s)</title></rect><rect x="200" y="100" width="18" height="8" fill="#60c8f0" opacity="0.85" rx="2"><title>09:00 — 1 commit(s)</title></rect><rect x="220" y="82" width="18" height="26" fill="#60c8f0" opacity="0.85" rx="2"><title>10:00 — 3 commit(s)</title></rect><rect x="240" y="108" width="18" height="2" fill="#3a3835" opacity="0.4" rx="2"><title>11:00 — 0 commit(s)</title></rect><rect x="260" y="100" width="18" height="8" fill="#c8f060" opacity="0.85" rx="2"><title>12:00 — 1 commit(s)</title></rect><text x="269" y="122" font-family="monospace" font-size="9" fill="#7a7870" text-anchor="middle">12h</text><rect x="280" y="100" width="18" height="8" fill="#c8f060" opacity="0.85" rx="2"><title>13:00 — 1 commit(s)</title></rect><rect x="300" y="82" width="18" height="26" fill="#c8f060" opacity="0.85" rx="2"><title>14:00 — 3 commit(s)</title></rect><rect x="320" y="28" width="18" height="80" fill="#c8f060" opacity="0.85" rx="2"><title>15:00 — 9 commit(s)</title></rect><rect x="340" y="46" width="18" height="62" fill="#c8f060" opacity="0.85" rx="2"><title>16:00 — 7 commit(s)</title></rect><rect x="360" y="108" width="18" height="2" fill="#3a3835" opacity="0.4" rx="2"><title>17:00 — 0 commit(s)</title></rect><rect x="380" y="108" width="18" height="2" fill="#3a3835" opacity="0.4" rx="2"><title>18:00 — 0 commit(s)</title></rect><text x="389" y="122" font-family="monospace" font-size="9" fill="#7a7870" text-anchor="middle">18h</text><rect x="400" y="108" width="18" height="2" fill="#3a3835" opacity="0.4" rx="2"><title>19:00 — 0 commit(s)</title></rect><rect x="420" y="108" width="18" height="2" fill="#3a3835" opacity="0.4" rx="2"><title>20:00 — 0 commit(s)</title></rect><rect x="440" y="108" width="18" height="2" fill="#3a3835" opacity="0.4" rx="2"><title>21:00 — 0 commit(s)</title></rect><rect x="460" y="108" width="18" height="2" fill="#3a3835" opacity="0.4" rx="2"><title>22:00 — 0 commit(s)</title></rect><rect x="480" y="108" width="18" height="2" fill="#3a3835" opacity="0.4" rx="2"><title>23:00 — 0 commit(s)</title></rect></svg>