<svg xmlns="http://www.w3.org/2000/svg" width="78" height="210" viewBox="0 0 78 210"><rect width="78" height="210" fill="#ffffff" rx="8"/><text x="20" y="18" font-family="monospace" font-size="10" fill="#6b7280" letter-spacing="2">LANGUAGE DRIFT</text><rect x="20" y="59" width="32" height="91" fill="#6c63ff" opacity="0.85" rx="1"><title>2026-03 TypeScript: 76%</title></rect><rect x="20" y="49" width="32" height="10" fill="#f59e0b" opacity="0.85" rx="1"><title>2026-03 CSV: 9%</title></rect><rect x="20" y="42" width="32" height="7" fill="#3b82f6" opacity="0.85" rx="1"><title>2026-03 Python: 6%</title></rect><rect x="20" y="38" width="32" height="4" fill="#a060f0" opacity="0.85" rx="1"><title>2026-03 JSON: 4%</title></rect><rect x="20" y="35" width="32" height="3" fill="#60d0a0" opacity="0.85" rx="1"><title>2026-03 Markdown: 3%</title></rect><text x="36" y="166" font-family="monospace" font-size="8" fill="#6b7280" text-anchor="middle">03</text><rect x="20" y="190" width="8" height="8" fill="#6c63ff" rx="1"/><text x="31" y="198" font-family="monospace" font-size="9" fill="#6b7280">TypeScript</text><rect x="110" y="190" width="8" height="8" fill="#f59e0b" rx="1"/><text x="121" y="198" font-family="monospace" font-size="9" fill="#6b7280">CSV</text><rect x="151" y="190" width="8" height="8" fill="#3b82f6" rx="1"/><text x="162" y="198" font-family="monospace" font-size="9" fill="#6b7280">Python</text><rect x="213" y="190" width="8" height="8" fill="#a060f0" rx="1"/><text x="224" y="198" font-family="monospace" font-size="9" fill="#6b7280">JSON</text><rect x="261" y="190" width="8" height="8" fill="#60d0a0" rx="1"/><text x="272" y="198" font-family="monospace" font-size="9" fill="#6b7280">Markdown</text><rect x="337" y="190" width="8" height="8" fill="#f06060" rx="1"/><text x="348" y="198" font-family="monospace" font-size="9" fill="#6b7280">PYC</text></svg>