<svg xmlns="http://www.w3.org/2000/svg" width="154" height="210" viewBox="0 0 154 210"><rect width="154" height="210" fill="#ffffff" rx="8"/><text x="20" y="18" font-family="monospace" font-size="10" fill="#6b7280" letter-spacing="2">LANGUAGE DRIFT</text><rect x="20" y="62" width="32" height="88" fill="#6c63ff" opacity="0.85" rx="1"><title>2026-03 TypeScript: 74%</title></rect><rect x="20" y="58" width="32" height="4" fill="#f59e0b" opacity="0.85" rx="1"><title>2026-03 Python: 4%</title></rect><rect x="20" y="54" width="32" height="4" fill="#a060f0" opacity="0.85" rx="1"><title>2026-03 JSON: 4%</title></rect><rect x="20" y="51" width="32" height="3" fill="#60d0a0" opacity="0.85" rx="1"><title>2026-03 Markdown: 3%</title></rect><text x="36" y="166" font-family="monospace" font-size="8" fill="#6b7280" text-anchor="middle">03</text><rect x="58" y="78" width="32" height="72" fill="#6c63ff" opacity="0.85" rx="1"><title>2026-04 TypeScript: 60%</title></rect><rect x="58" y="64" width="32" height="14" fill="#f59e0b" opacity="0.85" rx="1"><title>2026-04 Python: 12%</title></rect><rect x="58" y="57" width="32" height="7" fill="#a060f0" opacity="0.85" rx="1"><title>2026-04 JSON: 6%</title></rect><rect x="58" y="49" width="32" height="8" fill="#60d0a0" opacity="0.85" rx="1"><title>2026-04 Markdown: 7%</title></rect><text x="74" y="166" font-family="monospace" font-size="8" fill="#6b7280" text-anchor="middle">04</text><rect x="96" y="82" width="32" height="68" fill="#6c63ff" opacity="0.85" rx="1"><title>2026-05 TypeScript: 57%</title></rect><rect x="96" y="63" width="32" height="19" fill="#3b82f6" opacity="0.85" rx="1"><title>2026-05 PNG: 16%</title></rect><rect x="96" y="59" width="32" height="4" fill="#a060f0" opacity="0.85" rx="1"><title>2026-05 JSON: 4%</title></rect><rect x="96" y="51" width="32" height="8" fill="#f06060" opacity="0.85" rx="1"><title>2026-05 Rust: 7%</title></rect><text x="112" y="166" font-family="monospace" font-size="8" fill="#6b7280" text-anchor="middle">05</text><rect x="20" y="190" width="8" height="8" fill="#6c63ff" rx="1"/><text x="31" y="198" font-family="monospace" font-size="9" fill="#6b7280">TypeScript</text><rect x="110" y="190" width="8" height="8" fill="#f59e0b" rx="1"/><text x="121" y="198" font-family="monospace" font-size="9" fill="#6b7280">Python</text><rect x="172" y="190" width="8" height="8" fill="#3b82f6" rx="1"/><text x="183" y="198" font-family="monospace" font-size="9" fill="#6b7280">PNG</text><rect x="213" y="190" width="8" height="8" fill="#a060f0" rx="1"/><text x="224" y="198" font-family="monospace" font-size="9" fill="#6b7280">JSON</text><rect x="261" y="190" width="8" height="8" fill="#60d0a0" rx="1"/><text x="272" y="198" font-family="monospace" font-size="9" fill="#6b7280">Markdown</text><rect x="337" y="190" width="8" height="8" fill="#f06060" rx="1"/><text x="348" y="198" font-family="monospace" font-size="9" fill="#6b7280">Rust</text></svg>