<svg xmlns="http://www.w3.org/2000/svg" width="78" height="210" viewBox="0 0 78 210"><rect width="78" height="210" fill="#ffffff" rx="8"/><text x="20" y="18" font-family="monospace" font-size="10" fill="#6b7280" letter-spacing="2">LANGUAGE DRIFT</text><rect x="20" y="65" width="32" height="85" fill="#6c63ff" opacity="0.85" rx="1"><title>2026-03 TypeScript: 71%</title></rect><rect x="20" y="57" width="32" height="8" fill="#f59e0b" opacity="0.85" rx="1"><title>2026-03 CSV: 7%</title></rect><rect x="20" y="53" width="32" height="4" fill="#3b82f6" opacity="0.85" rx="1"><title>2026-03 Python: 4%</title></rect><rect x="20" y="49" width="32" height="4" fill="#a060f0" opacity="0.85" rx="1"><title>2026-03 JSON: 4%</title></rect><rect x="20" y="45" width="32" height="4" fill="#60d0a0" opacity="0.85" rx="1"><title>2026-03 WEBP: 4%</title></rect><rect x="20" y="42" width="32" height="3" fill="#f06060" opacity="0.85" rx="1"><title>2026-03 XML: 3%</title></rect><text x="36" y="166" font-family="monospace" font-size="8" fill="#6b7280" text-anchor="middle">03</text><rect x="20" y="190" width="8" height="8" fill="#6c63ff" rx="1"/><text x="31" y="198" font-family="monospace" font-size="9" fill="#6b7280">TypeScript</text><rect x="110" y="190" width="8" height="8" fill="#f59e0b" rx="1"/><text x="121" y="198" font-family="monospace" font-size="9" fill="#6b7280">CSV</text><rect x="151" y="190" width="8" height="8" fill="#3b82f6" rx="1"/><text x="162" y="198" font-family="monospace" font-size="9" fill="#6b7280">Python</text><rect x="213" y="190" width="8" height="8" fill="#a060f0" rx="1"/><text x="224" y="198" font-family="monospace" font-size="9" fill="#6b7280">JSON</text><rect x="261" y="190" width="8" height="8" fill="#60d0a0" rx="1"/><text x="272" y="198" font-family="monospace" font-size="9" fill="#6b7280">WEBP</text><rect x="309" y="190" width="8" height="8" fill="#f06060" rx="1"/><text x="320" y="198" font-family="monospace" font-size="9" fill="#6b7280">XML</text></svg>