<svg xmlns="http://www.w3.org/2000/svg" width="520" height="80" viewBox="0 0 520 80"><rect width="520" height="80" fill="#ffffff" rx="8"/><text x="20" y="16" font-family="monospace" font-size="10" fill="#6b7280" letter-spacing="2">MOOD — LAST 30 DAYS</text><circle cx="27" cy="50" r="7" fill="#6c63ff" opacity="0.9"><title>2026-03-29: focused</title></circle><circle cx="43" cy="50" r="7" fill="#e5e7eb" opacity="0.2"><title>2026-03-30: no commits</title></circle><circle cx="59" cy="50" r="7" fill="#6c63ff" opacity="0.9"><title>2026-03-31: focused</title></circle><circle cx="75" cy="50" r="7" fill="#e5e7eb" opacity="0.2"><title>2026-04-01: no commits</title></circle><circle cx="91" cy="50" r="7" fill="#e5e7eb" opacity="0.2"><title>2026-04-02: no commits</title></circle><circle cx="107" cy="50" r="7" fill="#e5e7eb" opacity="0.2"><title>2026-04-03: no commits</title></circle><circle cx="123" cy="50" r="7" fill="#6c63ff" opacity="0.9"><title>2026-04-04: focused</title></circle><circle cx="139" cy="50" r="7" fill="#8b5cf6" opacity="0.9"><title>2026-04-05: exploratory</title></circle><circle cx="155" cy="50" r="7" fill="#e5e7eb" opacity="0.2"><title>2026-04-06: no commits</title></circle><circle cx="171" cy="50" r="7" fill="#e5e7eb" opacity="0.2"><title>2026-04-07: no commits</title></circle><circle cx="187" cy="50" r="7" fill="#8b5cf6" opacity="0.9"><title>2026-04-08: exploratory</title></circle><circle cx="203" cy="50" r="7" fill="#8b5cf6" opacity="0.9"><title>2026-04-09: exploratory</title></circle><circle cx="219" cy="50" r="7" fill="#d1d5db" opacity="0.9"><title>2026-04-10: unknown</title></circle><circle cx="235" cy="50" r="7" fill="#8b5cf6" opacity="0.9"><title>2026-04-11: exploratory</title></circle><circle cx="251" cy="50" r="7" fill="#e5e7eb" opacity="0.9"><title>2026-04-12: no data</title></circle><circle cx="267" cy="50" r="7" fill="#e5e7eb" opacity="0.2"><title>2026-04-13: no data</title></circle><circle cx="283" cy="50" r="7" fill="#e5e7eb" opacity="0.2"><title>2026-04-14: no commits</title></circle><circle cx="299" cy="50" r="7" fill="#e5e7eb" opacity="0.2"><title>2026-04-15: no commits</title></circle><circle cx="315" cy="50" r="7" fill="#e5e7eb" opacity="0.2"><title>2026-04-16: no commits</title></circle><circle cx="331" cy="50" r="7" fill="#e5e7eb" opacity="0.2"><title>2026-04-17: no commits</title></circle><circle cx="347" cy="50" r="7" fill="#6c63ff" opacity="0.9"><title>2026-04-18: focused</title></circle><circle cx="363" cy="50" r="7" fill="#8b5cf6" opacity="0.9"><title>2026-04-19: exploratory</title></circle><circle cx="379" cy="50" r="7" fill="#3b82f6" opacity="0.9"><title>2026-04-20: scattered</title></circle><circle cx="395" cy="50" r="7" fill="#e5e7eb" opacity="0.2"><title>2026-04-21: no commits</title></circle><circle cx="411" cy="50" r="7" fill="#8b5cf6" opacity="0.9"><title>2026-04-22: exploratory</title></circle><circle cx="427" cy="50" r="7" fill="#8b5cf6" opacity="0.9"><title>2026-04-23: exploratory</title></circle><circle cx="443" cy="50" r="7" fill="#e5e7eb" opacity="0.2"><title>2026-04-24: no commits</title></circle><circle cx="459" cy="50" r="7" fill="#8b5cf6" opacity="0.9"><title>2026-04-25: exploratory</title></circle><circle cx="475" cy="50" r="7" fill="#8b5cf6" opacity="0.9"><title>2026-04-26: exploratory</title></circle><circle cx="491" cy="50" r="7" fill="#6c63ff" opacity="0.9"><title>2026-04-27: focused</title></circle><circle cx="25" cy="68" r="4" fill="#c8f060"/><text x="33" y="72" font-family="monospace" font-size="9" fill="#6b7280">focused</text><circle cx="105" cy="68" r="4" fill="#f0a040"/><text x="113" y="72" font-family="monospace" font-size="9" fill="#6b7280">grinding</text><circle cx="185" cy="68" r="4" fill="#a060f0"/><text x="193" y="72" font-family="monospace" font-size="9" fill="#6b7280">exploratory</text><circle cx="265" cy="68" r="4" fill="#60d0a0"/><text x="273" y="72" font-family="monospace" font-size="9" fill="#6b7280">cleanup</text></svg>