<svg xmlns="http://www.w3.org/2000/svg" width="520" height="80" viewBox="0 0 520 80"><rect width="520" height="80" fill="#0e0e0f"/><text x="20" y="16" font-family="monospace" font-size="10" fill="#7a7870" letter-spacing="2">MOOD — LAST 30 DAYS</text><circle cx="27" cy="50" r="7" fill="#2a2a2a" opacity="0.2"><title>2026-02-13: no data</title></circle><circle cx="43" cy="50" r="7" fill="#2a2a2a" opacity="0.2"><title>2026-02-14: no data</title></circle><circle cx="59" cy="50" r="7" fill="#2a2a2a" opacity="0.2"><title>2026-02-15: no data</title></circle><circle cx="75" cy="50" r="7" fill="#2a2a2a" opacity="0.2"><title>2026-02-16: no data</title></circle><circle cx="91" cy="50" r="7" fill="#2a2a2a" opacity="0.2"><title>2026-02-17: no data</title></circle><circle cx="107" cy="50" r="7" fill="#2a2a2a" opacity="0.2"><title>2026-02-18: no data</title></circle><circle cx="123" cy="50" r="7" fill="#2a2a2a" opacity="0.2"><title>2026-02-19: no data</title></circle><circle cx="139" cy="50" r="7" fill="#2a2a2a" opacity="0.2"><title>2026-02-20: no data</title></circle><circle cx="155" cy="50" r="7" fill="#2a2a2a" opacity="0.2"><title>2026-02-21: no data</title></circle><circle cx="171" cy="50" r="7" fill="#2a2a2a" opacity="0.2"><title>2026-02-22: no data</title></circle><circle cx="187" cy="50" r="7" fill="#2a2a2a" opacity="0.2"><title>2026-02-23: no data</title></circle><circle cx="203" cy="50" r="7" fill="#2a2a2a" opacity="0.2"><title>2026-02-24: no data</title></circle><circle cx="219" cy="50" r="7" fill="#2a2a2a" opacity="0.2"><title>2026-02-25: no data</title></circle><circle cx="235" cy="50" r="7" fill="#2a2a2a" opacity="0.2"><title>2026-02-26: no data</title></circle><circle cx="251" cy="50" r="7" fill="#2a2a2a" opacity="0.2"><title>2026-02-27: no data</title></circle><circle cx="267" cy="50" r="7" fill="#2a2a2a" opacity="0.2"><title>2026-02-28: no data</title></circle><circle cx="283" cy="50" r="7" fill="#2a2a2a" opacity="0.2"><title>2026-03-01: no data</title></circle><circle cx="299" cy="50" r="7" fill="#2a2a2a" opacity="0.2"><title>2026-03-02: no data</title></circle><circle cx="315" cy="50" r="7" fill="#2a2a2a" opacity="0.2"><title>2026-03-03: no data</title></circle><circle cx="331" cy="50" r="7" fill="#2a2a2a" opacity="0.2"><title>2026-03-04: no data</title></circle><circle cx="347" cy="50" r="7" fill="#2a2a2a" opacity="0.2"><title>2026-03-05: no data</title></circle><circle cx="363" cy="50" r="7" fill="#2a2a2a" opacity="0.2"><title>2026-03-06: no data</title></circle><circle cx="379" cy="50" r="7" fill="#2a2a2a" opacity="0.2"><title>2026-03-07: no data</title></circle><circle cx="395" cy="50" r="7" fill="#2a2a2a" opacity="0.2"><title>2026-03-08: no data</title></circle><circle cx="411" cy="50" r="7" fill="#2a2a2a" opacity="0.2"><title>2026-03-09: no data</title></circle><circle cx="427" cy="50" r="7" fill="#2a2a2a" opacity="0.2"><title>2026-03-10: no data</title></circle><circle cx="443" cy="50" r="7" fill="#2a2a2a" opacity="0.2"><title>2026-03-11: no data</title></circle><circle cx="459" cy="50" r="7" fill="#2a2a2a" opacity="0.2"><title>2026-03-12: no data</title></circle><circle cx="475" cy="50" r="7" fill="#2a2a2a" opacity="0.9"><title>2026-03-13: no data</title></circle><circle cx="491" cy="50" r="7" fill="#2a2a2a" opacity="0.2"><title>2026-03-14: no data</title></circle><circle cx="25" cy="68" r="4" fill="#c8f060"/><text x="33" y="72" font-family="monospace" font-size="9" fill="#7a7870">focused</text><circle cx="105" cy="68" r="4" fill="#f0a040"/><text x="113" y="72" font-family="monospace" font-size="9" fill="#7a7870">grinding</text><circle cx="185" cy="68" r="4" fill="#a060f0"/><text x="193" y="72" font-family="monospace" font-size="9" fill="#7a7870">exploratory</text><circle cx="265" cy="68" r="4" fill="#60d0a0"/><text x="273" y="72" font-family="monospace" font-size="9" fill="#7a7870">cleanup</text></svg>