<svg xmlns="http://www.w3.org/2000/svg" width="440" height="206" viewBox="0 0 440 206"><rect width="440" height="206" fill="#ffffff" rx="8"/><text x="20" y="18" font-family="monospace" font-size="10" fill="#6b7280" letter-spacing="2">REPO ACTIVITY — 30 DAYS</text><text x="136" y="44" font-family="monospace" font-size="10" fill="#1a1d2e" text-anchor="end">lms-monorepo</text><rect x="140" y="30" width="240" height="20" fill="#6c63ff" opacity="0.85" rx="2"><title>lms-monorepo: 28 commits</title></rect><text x="386" y="44" font-family="monospace" font-size="9" fill="#6b7280">28</text><text x="136" y="70" font-family="monospace" font-size="10" fill="#1a1d2e" text-anchor="end">aria-agent</text><rect x="140" y="56" width="180" height="20" fill="#6c63ff" opacity="0.85" rx="2"><title>aria-agent: 21 commits</title></rect><text x="326" y="70" font-family="monospace" font-size="9" fill="#6b7280">21</text><text x="136" y="96" font-family="monospace" font-size="10" fill="#1a1d2e" text-anchor="end">unihostel-monore</text><rect x="140" y="82" width="137" height="20" fill="#6c63ff" opacity="0.85" rx="2"><title>unihostel-monorepo: 16 commits</title></rect><text x="283" y="96" font-family="monospace" font-size="9" fill="#6b7280">16</text><text x="136" y="122" font-family="monospace" font-size="10" fill="#1a1d2e" text-anchor="end">mql5-sage</text><rect x="140" y="108" width="34" height="20" fill="#6c63ff" opacity="0.85" rx="2"><title>mql5-sage: 4 commits</title></rect><text x="180" y="122" font-family="monospace" font-size="9" fill="#6b7280">4</text><text x="136" y="148" font-family="monospace" font-size="10" fill="#1a1d2e" text-anchor="end">devpulse</text><rect x="140" y="134" width="8" height="20" fill="#6c63ff" opacity="0.85" rx="2"><title>devpulse: 1 commits</title></rect><text x="154" y="148" font-family="monospace" font-size="9" fill="#6b7280">1</text><text x="136" y="174" font-family="monospace" font-size="10" fill="#1a1d2e" text-anchor="end">new-portfolio</text><rect x="140" y="160" width="8" height="20" fill="#6c63ff" opacity="0.85" rx="2"><title>new-portfolio: 1 commits</title></rect><text x="154" y="174" font-family="monospace" font-size="9" fill="#6b7280">1</text></svg>