<svg xmlns="http://www.w3.org/2000/svg" width="440" height="258" viewBox="0 0 440 258"><rect width="440" height="258" fill="#ffffff" rx="8"/><text x="20" y="18" font-family="monospace" font-size="10" fill="#6b7280" letter-spacing="2">REPO ACTIVITY — 30 DAYS</text><text x="136" y="44" font-family="monospace" font-size="10" fill="#1a1d2e" text-anchor="end">AgentPress</text><rect x="140" y="30" width="240" height="20" fill="#6c63ff" opacity="0.85" rx="2"><title>AgentPress: 23 commits</title></rect><text x="386" y="44" font-family="monospace" font-size="9" fill="#6b7280">23</text><text x="136" y="70" font-family="monospace" font-size="10" fill="#6b7280" text-anchor="end">mql5-sage</text><rect x="140" y="56" width="135" height="20" fill="#d1d5db" opacity="1" rx="2"><title>mql5-sage: 13 commits</title></rect><text x="281" y="70" font-family="monospace" font-size="9" fill="#6b7280">13</text><text x="136" y="96" font-family="monospace" font-size="10" fill="#1a1d2e" text-anchor="end">asas-monorepo</text><rect x="140" y="82" width="114" height="20" fill="#6c63ff" opacity="0.85" rx="2"><title>asas-monorepo: 11 commits</title></rect><text x="260" y="96" font-family="monospace" font-size="9" fill="#6b7280">11</text><text x="136" y="122" font-family="monospace" font-size="10" fill="#1a1d2e" text-anchor="end">lms-monorepo</text><rect x="140" y="108" width="104" height="20" fill="#6c63ff" opacity="0.85" rx="2"><title>lms-monorepo: 10 commits</title></rect><text x="250" y="122" font-family="monospace" font-size="9" fill="#6b7280">10</text><text x="136" y="148" font-family="monospace" font-size="10" fill="#1a1d2e" text-anchor="end">unihostel-monore</text><rect x="140" y="134" width="52" height="20" fill="#6c63ff" opacity="0.85" rx="2"><title>unihostel-monorepo: 5 commits</title></rect><text x="198" y="148" font-family="monospace" font-size="9" fill="#6b7280">5</text><text x="136" y="174" font-family="monospace" font-size="10" fill="#6b7280" text-anchor="end">trophy-games</text><rect x="140" y="160" width="31" height="20" fill="#d1d5db" opacity="1" rx="2"><title>trophy-games: 3 commits</title></rect><text x="177" y="174" font-family="monospace" font-size="9" fill="#6b7280">3</text><text x="136" y="200" font-family="monospace" font-size="10" fill="#6b7280" text-anchor="end">flex-fm-mobile</text><rect x="140" y="186" width="20" height="20" fill="#d1d5db" opacity="1" rx="2"><title>flex-fm-mobile: 2 commits</title></rect><text x="166" y="200" font-family="monospace" font-size="9" fill="#6b7280">2</text><text x="136" y="226" font-family="monospace" font-size="10" fill="#6b7280" text-anchor="end">prismx-monorepo</text><rect x="140" y="212" width="10" height="20" fill="#d1d5db" opacity="1" rx="2"><title>prismx-monorepo: 1 commits</title></rect><text x="156" y="226" font-family="monospace" font-size="9" fill="#6b7280">1</text></svg>