<svg xmlns="http://www.w3.org/2000/svg" width="440" height="310" viewBox="0 0 440 310"><rect width="440" height="310" fill="#ffffff" rx="8"/><text x="20" y="18" font-family="monospace" font-size="10" fill="#6b7280" letter-spacing="2">REPO ACTIVITY — 30 DAYS</text><text x="136" y="44" font-family="monospace" font-size="10" fill="#1a1d2e" text-anchor="end">AgentPress</text><rect x="140" y="30" width="240" height="20" fill="#6c63ff" opacity="0.85" rx="2"><title>AgentPress: 23 commits</title></rect><text x="386" y="44" font-family="monospace" font-size="9" fill="#6b7280">23</text><text x="136" y="70" font-family="monospace" font-size="10" fill="#1a1d2e" text-anchor="end">blue-sky-web</text><rect x="140" y="56" width="187" height="20" fill="#6c63ff" opacity="0.85" rx="2"><title>blue-sky-web: 18 commits</title></rect><text x="333" y="70" font-family="monospace" font-size="9" fill="#6b7280">18</text><text x="136" y="96" font-family="monospace" font-size="10" fill="#6b7280" text-anchor="end">asas-monorepo</text><rect x="140" y="82" width="104" height="20" fill="#d1d5db" opacity="1" rx="2"><title>asas-monorepo: 10 commits</title></rect><text x="250" y="96" font-family="monospace" font-size="9" fill="#6b7280">10</text><text x="136" y="122" font-family="monospace" font-size="10" fill="#1a1d2e" text-anchor="end">kolamatch-intell</text><rect x="140" y="108" width="62" height="20" fill="#6c63ff" opacity="0.85" rx="2"><title>kolamatch-intelligence: 6 commits</title></rect><text x="208" y="122" font-family="monospace" font-size="9" fill="#6b7280">6</text><text x="136" y="148" font-family="monospace" font-size="10" fill="#1a1d2e" text-anchor="end">unihostel-monore</text><rect x="140" y="134" width="52" height="20" fill="#6c63ff" opacity="0.85" rx="2"><title>unihostel-monorepo: 5 commits</title></rect><text x="198" y="148" font-family="monospace" font-size="9" fill="#6b7280">5</text><text x="136" y="174" font-family="monospace" font-size="10" fill="#6b7280" text-anchor="end">trophy-games</text><rect x="140" y="160" width="31" height="20" fill="#d1d5db" opacity="1" rx="2"><title>trophy-games: 3 commits</title></rect><text x="177" y="174" font-family="monospace" font-size="9" fill="#6b7280">3</text><text x="136" y="200" font-family="monospace" font-size="10" fill="#1a1d2e" text-anchor="end">lms-monorepo</text><rect x="140" y="186" width="31" height="20" fill="#6c63ff" opacity="0.85" rx="2"><title>lms-monorepo: 3 commits</title></rect><text x="177" y="200" font-family="monospace" font-size="9" fill="#6b7280">3</text><text x="136" y="226" font-family="monospace" font-size="10" fill="#1a1d2e" text-anchor="end">krc-tv-monorepo</text><rect x="140" y="212" width="31" height="20" fill="#6c63ff" opacity="0.85" rx="2"><title>krc-tv-monorepo: 3 commits</title></rect><text x="177" y="226" font-family="monospace" font-size="9" fill="#6b7280">3</text><text x="136" y="252" font-family="monospace" font-size="10" fill="#6b7280" text-anchor="end">flex-fm-mobile</text><rect x="140" y="238" width="20" height="20" fill="#d1d5db" opacity="1" rx="2"><title>flex-fm-mobile: 2 commits</title></rect><text x="166" y="252" font-family="monospace" font-size="9" fill="#6b7280">2</text><text x="136" y="278" font-family="monospace" font-size="10" fill="#1a1d2e" text-anchor="end">blue-sky-mobile</text><rect x="140" y="264" width="10" height="20" fill="#6c63ff" opacity="0.85" rx="2"><title>blue-sky-mobile: 1 commits</title></rect><text x="156" y="278" font-family="monospace" font-size="9" fill="#6b7280">1</text></svg>