<svg xmlns="http://www.w3.org/2000/svg" width="450" height="200" viewBox="0 0 450 200"><rect width="450" height="200" fill="#ffffff" rx="8"/><text x="20" y="18" font-family="monospace" font-size="10" fill="#6b7280" letter-spacing="2">TARGETS — THIS WEEK</text><text x="144" y="45" font-family="monospace" font-size="10" fill="#1a1d2e" text-anchor="end">commits</text><rect x="150" y="30" width="220" height="22" fill="#f3f4f6" opacity="1" rx="3"/><rect x="150" y="30" width="72" height="22" fill="#ef4444" opacity="0.85" rx="3"><title>5/15 (33%)</title></rect><text x="378" y="45" font-family="monospace" font-size="9" fill="#ef4444">5/15 ✗</text><text x="144" y="75" font-family="monospace" font-size="10" fill="#1a1d2e" text-anchor="end">active repos</text><rect x="150" y="60" width="220" height="22" fill="#f3f4f6" opacity="1" rx="3"/><rect x="150" y="60" width="220" height="22" fill="#6c63ff" opacity="0.85" rx="3"><title>2/2 (100%)</title></rect><text x="378" y="75" font-family="monospace" font-size="9" fill="#6c63ff">2/2 ✓</text><text x="144" y="105" font-family="monospace" font-size="10" fill="#1a1d2e" text-anchor="end">feat commits</text><rect x="150" y="90" width="220" height="22" fill="#f3f4f6" opacity="1" rx="3"/><rect x="150" y="90" width="147" height="22" fill="#ef4444" opacity="0.85" rx="3"><title>2/3 (67%)</title></rect><text x="378" y="105" font-family="monospace" font-size="9" fill="#ef4444">2/3 ✗</text><text x="144" y="135" font-family="monospace" font-size="10" fill="#1a1d2e" text-anchor="end">streak days</text><rect x="150" y="120" width="220" height="22" fill="#f3f4f6" opacity="1" rx="3"/><rect x="150" y="120" width="132" height="22" fill="#ef4444" opacity="0.85" rx="3"><title>3/5 (60%)</title></rect><text x="378" y="135" font-family="monospace" font-size="9" fill="#ef4444">3/5 ✗</text><text x="144" y="165" font-family="monospace" font-size="10" fill="#1a1d2e" text-anchor="end">example-repo</text><rect x="150" y="150" width="220" height="22" fill="#f3f4f6" opacity="1" rx="3"/><text x="378" y="165" font-family="monospace" font-size="9" fill="#ef4444">0/4 ✗</text></svg>