<svg xmlns="http://www.w3.org/2000/svg" width="450" height="200" viewBox="0 0 450 200"><rect width="450" height="200" fill="#0e0e0f"/><text x="20" y="18" font-family="monospace" font-size="10" fill="#7a7870" letter-spacing="2">TARGETS — THIS WEEK</text><text x="144" y="45" font-family="monospace" font-size="10" fill="#e8e6df" text-anchor="end">commits</text><rect x="150" y="30" width="220" height="22" fill="#3a3835" opacity="0.5" rx="3"/><rect x="150" y="30" width="28" height="22" fill="#f06060" opacity="0.85" rx="3"><title>2/15 (13%)</title></rect><text x="378" y="45" font-family="monospace" font-size="9" fill="#f06060">2/15 ✗</text><text x="144" y="75" font-family="monospace" font-size="10" fill="#e8e6df" text-anchor="end">active repos</text><rect x="150" y="60" width="220" height="22" fill="#3a3835" opacity="0.5" rx="3"/><rect x="150" y="60" width="220" height="22" fill="#c8f060" opacity="0.85" rx="3"><title>2/2 (100%)</title></rect><text x="378" y="75" font-family="monospace" font-size="9" fill="#c8f060">2/2 ✓</text><text x="144" y="105" font-family="monospace" font-size="10" fill="#e8e6df" text-anchor="end">feat commits</text><rect x="150" y="90" width="220" height="22" fill="#3a3835" opacity="0.5" rx="3"/><text x="378" y="105" font-family="monospace" font-size="9" fill="#f06060">0/3 ✗</text><text x="144" y="135" font-family="monospace" font-size="10" fill="#e8e6df" text-anchor="end">streak days</text><rect x="150" y="120" width="220" height="22" fill="#3a3835" opacity="0.5" rx="3"/><rect x="150" y="120" width="44" height="22" fill="#f06060" opacity="0.85" rx="3"><title>1/5 (20%)</title></rect><text x="378" y="135" font-family="monospace" font-size="9" fill="#f06060">1/5 ✗</text><text x="144" y="165" font-family="monospace" font-size="10" fill="#e8e6df" text-anchor="end">example-repo</text><rect x="150" y="150" width="220" height="22" fill="#3a3835" opacity="0.5" rx="3"/><text x="378" y="165" font-family="monospace" font-size="9" fill="#f06060">0/4 ✗</text></svg>